<?xml version="1.0" encoding="utf-8"?>
<!-- Generator: Adobe Illustrator 12.0.0, SVG Export Plug-In . SVG Version: 6.00 Build 51448)  -->
<!DOCTYPE svg PUBLIC "-//W3C//DTD SVG 1.1//EN" "http://www.w3.org/Graphics/SVG/1.1/DTD/svg11.dtd" [
	<!ENTITY ns_svg "http://www.w3.org/2000/svg">
	<!ENTITY ns_xlink "http://www.w3.org/1999/xlink">
]>
<svg  version="1.1"
	 id="Layer_1" xmlns:inkscape="http://www.inkscape.org/namespaces/inkscape" xmlns:sodipodi="http://sodipodi.sourceforge.net/DTD/sodipodi-0.dtd" xmlns:svg="http://www.w3.org/2000/svg" xmlns:rdf="http://www.w3.org/1999/02/22-rdf-syntax-ns#" xmlns:cc="http://creativecommons.org/ns#" xmlns:dc="http://purl.org/dc/elements/1.1/" inkscape:version="0.92.4 (5da689c313, 2019-01-14)" sodipodi:docname="wing-square.svg"
	 xmlns="&ns_svg;" xmlns:xlink="&ns_xlink;" width="1000" height="1000" viewBox="0 0 1000 1000"
	 overflow="visible" enable-background="new 0 0 1000 1000" xml:space="preserve">
<sodipodi:namedview  id="namedview21" gridtolerance="10" inkscape:window-maximized="1" pagecolor="#ffffff" bordercolor="#666666" borderopacity="1" inkscape:zoom="0.70710678" inkscape:cx="784.46435" inkscape:cy="503.1454" showgrid="false" guidetolerance="10" inkscape:pageopacity="0" inkscape:pageshadow="2" inkscape:current-layer="Layer_1" inkscape:window-width="1700" inkscape:window-height="931" inkscape:window-x="2391" inkscape:window-y="275" objecttolerance="10">
	</sodipodi:namedview>
<g>
	<path fill="none" d="M832.953,471.944c-16.805,0-30.295,6.53-40.463,19.64c-10.262,13.044-15.34,29.867-15.34,50.382
		c0,9.3,2.182,16.525,6.538,21.7c4.39,5.146,12.225,7.757,23.623,7.757c5.481,0,11.142-1.078,16.8-3.333
		c5.707-2.188,11.023-4.794,16.035-7.824l17.835-82.451c-3.021-1.43-7.001-2.75-12.008-4.003
		C841.047,472.579,836.719,471.944,832.953,471.944z"/>
	<polygon fill="#B0C025" points="284.178,542.255 277.104,376.336 217.21,376.336 139.382,542.333 138.957,376.336 76.385,376.336 
		86.957,617.606 153.762,617.606 229.013,457.571 238.983,617.606 303.395,617.606 416.134,376.336 355.156,376.336 	"/>
	<polygon fill="#B0C025" points="389.625,617.606 446.15,617.606 486.759,435.68 430.257,435.68 	"/>
	<path fill="#B0C025" d="M631.453,527.353l-19.91,90.257h56.902l26.123-118.429c0.935-4.088,1.623-8.021,2.02-11.835
		c0.426-3.779,0.615-7.281,0.615-10.536c0-14.988-4.335-26.488-13.083-34.316c-8.765-7.932-21.007-11.88-36.66-11.88
		c-11.51,0-22.036,2.238-31.521,6.666c-9.514,4.452-20.066,10.572-31.599,18.467l4.552-20.066H532.45l-40.424,181.93h56.48
		l28.507-128.941c7.26-4.01,13.875-6.985,19.653-9.033c5.826-1.985,10.983-2.976,15.458-2.976c9.184,0,15.437,1.612,18.892,4.849
		c3.457,3.255,5.135,8.38,5.135,15.425c0,4.117-0.415,8.525-1.253,13.262C634.11,514.942,632.975,520.663,631.453,527.353z"/>
	<path fill="#B0C025" d="M865.03,443.744c-4.967-3.758-11.556-6.878-19.71-9.34c-8.17-2.517-17.259-3.792-27.257-3.792
		c-27.785,0-51.41,11.487-70.827,34.474c-19.513,22.953-29.201,52.309-29.201,88.063c0,20.715,5.531,36.23,16.639,46.486
		c11.022,10.292,26.443,15.358,46.095,15.358c10.066,0,19.133-1.649,27.109-4.983c8.025-3.382,12.757-5.484,20.867-11.223
		c0,0-3.271,39.335-13.82,63.915c-6.18,13.979-14.58,38.187-65.85,71.43c-22.674,17.146-32.767,23.825-44.396,34.014
		c0.357,1.533,1.115,1.187,16.012-4.514c19.25-8.315,54.182-27.98,78.221-43.795c26.111-18.089,42.75-32.832,69.896-63.573
		c4.852-4.021,12.618-22.686,19.595-59.577l35.212-161.008h-54.682L865.03,443.744z M840.146,560.266
		c-5.012,3.03-10.328,5.636-16.035,7.824c-5.658,2.255-11.318,3.333-16.8,3.333c-11.398,0-19.233-2.611-23.623-7.757
		c-4.356-5.175-6.538-12.4-6.538-21.7c0-20.515,5.078-37.338,15.34-50.382c10.168-13.109,23.658-19.64,40.463-19.64
		c3.766,0,8.094,0.635,13.021,1.867c5.007,1.253,8.986,2.573,12.008,4.003L840.146,560.266z"/>
	<path fill="#0099D8" d="M570.64,277.943c-2.675-6.309-18.198-4.273-22.443-2.013c-4.358,1.533-7.869,7.593-12.248,12.08
		c-4.368,0.75-11.417-3.77-17.215-11.32c-5.828-13.585-7.287-11.354-18.91-16.653c-16.019-6.792-21.835-6.792-46.599-11.343
		c-21.847-4.513-47.274,1.521-56.743,4.552c-9.47,3.032-0.773,7.595-0.773,7.595c10.938,3.369,48.065,13.937,66.266,19.653
		c14.161,3.378,23.663,8.267,25.838,15.458c2.903,4.172,11.745,23.467,15.408,27.612c2.914,2.645,2.528,5.296,0.722,5.676
		c0,0-4.904,1.499-10.307,2.634c-2.92,0.778-16.778,3.793-29.458,6.068c-11.695,1.481-27.325,3.401-56.071,5.307
		c-24.519,3.205-9.207,3.418-9.442,3.38c3.647,0.39,19.273,1.895,35.648,2.265c17.092,0.76,34.568,6.442,40.917,9.293
		c2.182,0.348,10.57,7.519,12.773,13.022c2.191,4.933,1.97,6.778,1.655,20.02c-0.402,12.082-2.684,36.41-1.219,37.948
		c-0.34-12.461,8.469-31.878,11.745-43.227c2.18-9.43,17.472-34.45,24.35-40.848c14.91-12.45,28.432-2.618,33.87,1.14
		c3.986,3.02,21.083,22.315,29.83,31.001c6.198,6.067,19.821,17.65,29.464,21.157c-2.193-20.023-17.462-46.9-27.647-66.526
		c-12.34-19.63-19.153-22.925-26.439-26.739c-7.98,2.315-0.722-8.013,2.205-13.321C567.967,288.01,568.481,284.004,570.64,277.943z"
		/>
</g>
<rect id="rect864" x="1.679" y="1.679" fill="none" stroke="#000000" stroke-width="2" width="996.641" height="996.641"/>
</svg>
